<svg xmlns="http://www.w3.org/2000/svg" version="1.1" xmlns:xlink="http://www.w3.org/1999/xlink" xmlns:svgjs="http://svgjs.dev/svgjs" width="1366" height="768" preserveAspectRatio="none" viewBox="0 0 1366 768"><g mask="url(&quot;#SvgjsMask1066&quot;)" fill="none"><rect width="1366" height="768" x="0" y="0" fill="rgba(24, 25, 26, 1)"></rect><path d="M0 0L33.74 0L0 60.14z" fill="rgba(255, 255, 255, .1)"></path><path d="M0 60.14L33.74 0L215.27 0L0 197.27999999999997z" fill="rgba(255, 255, 255, .075)"></path><path d="M0 197.27999999999997L215.27 0L252.05 0L0 536.22z" fill="rgba(255, 255, 255, .05)"></path><path d="M0 536.22L252.05 0L686.09 0L0 697.94z" fill="rgba(255, 255, 255, .025)"></path><path d="M1366 768L1037.35 768L1366 455.38z" fill="rgba(0, 0, 0, .1)"></path><path d="M1366 455.38L1037.35 768L549.8999999999999 768L1366 365.01z" fill="rgba(0, 0, 0, .075)"></path><path d="M1366 365.01L549.9000000000001 768L417.4500000000001 768L1366 289.89z" fill="rgba(0, 0, 0, .05)"></path><path d="M1366 289.89L417.45000000000005 768L261.84000000000003 768L1366 131.29999999999998z" fill="rgba(0, 0, 0, .025)"></path></g><defs><mask id="SvgjsMask1066"><rect width="1366" height="768" fill="#ffffff"></rect></mask></defs></svg>