<svg xmlns="http://www.w3.org/2000/svg" version="1.1" xmlns:xlink="http://www.w3.org/1999/xlink" xmlns:svgjs="http://svgjs.dev/svgjs" width="1366" height="768" preserveAspectRatio="none" viewBox="0 0 1366 768"><g mask="url(&quot;#SvgjsMask1025&quot;)" fill="none"><rect width="1366" height="768" x="0" y="0" fill="rgba(244, 244, 244, 1)"></rect><path d="M1366 0L1237.32 0L1366 21.12z" fill="rgba(255, 255, 255, .1)"></path><path d="M1237.32 0L1366 21.12L1366 334.83L717.55 0z" fill="rgba(255, 255, 255, .075)"></path><path d="M717.55 0L1366 334.83L1366 362.27L715.54 0z" fill="rgba(255, 255, 255, .05)"></path><path d="M715.54 0L1366 362.27L1366 406.09999999999997L547.8 0z" fill="rgba(255, 255, 255, .025)"></path><path d="M0 768L613.48 768L0 536.02z" fill="rgba(0, 0, 0, .1)"></path><path d="M0 536.02L613.48 768L726.09 768L0 504.53z" fill="rgba(0, 0, 0, .075)"></path><path d="M0 504.53000000000003L726.09 768L1037.16 768L0 444.66z" fill="rgba(0, 0, 0, .05)"></path><path d="M0 444.66L1037.16 768L1115.97 768L0 177.25z" fill="rgba(0, 0, 0, .025)"></path></g><defs><mask id="SvgjsMask1025"><rect width="1366" height="768" fill="#ffffff"></rect></mask></defs></svg>