<svg xmlns="http://www.w3.org/2000/svg" version="1.1" xmlns:xlink="http://www.w3.org/1999/xlink" xmlns:svgjs="http://svgjs.dev/svgjs" width="1366" height="768" preserveAspectRatio="none" viewBox="0 0 1366 768"><g mask="url(&quot;#SvgjsMask1052&quot;)" fill="none"><rect width="1366" height="768" x="0" y="0" fill="rgba(24, 25, 26, 1)"></rect><path d="M-49.28167080954558 613.7812333802459L163.09570424038085 639.8578961214627 189.1723669815976 427.48052107153626-23.205008068328837 401.4038583303195z" fill="rgba(244, 244, 244, 0.33)" class="triangle-float3"></path><path d="M1059.7671846093544 850.5754515177174L1157.5115311339694 768.5582063992488 1075.4942860155006 670.8138598746339 977.7499394908858 752.8311049931025z" fill="rgba(244, 244, 244, 0.33)" class="triangle-float1"></path><path d="M122.43670158246121 332.41907122619057L201.65860283235295 454.41010132767764 323.64963293384005 375.1882000777859 244.42773168394825 253.19716997629882z" fill="rgba(244, 244, 244, 0.33)" class="triangle-float2"></path><path d="M226.49293687164348 239.80354414707818L452.0239617159129 259.5349520943352 471.7553696631699 34.0039272500658 246.2243448189005 14.272519302808774z" fill="rgba(244, 244, 244, 0.33)" class="triangle-float2"></path><path d="M642.020788942462 142.44186840329155L539.8805488497962 208.77251589048547 690.44664012692 328.81755228588713z" fill="rgba(244, 244, 244, 0.33)" class="triangle-float2"></path><path d="M613.1969883043273 383.30458437029336L482.0309570358734 390.178704786443 557.9251532943249 583.490691481049z" fill="rgba(244, 244, 244, 0.33)" class="triangle-float3"></path><path d="M800.237,535.113C843.475,537.929,886.18,513.803,905.619,475.078C923.563,439.33,908.268,397.915,885.672,364.91C866.299,336.612,834.531,321.105,800.237,321.153C766.036,321.201,732.67,335.737,715.217,365.15C697.423,395.137,700.619,431.559,716.218,462.744C733.942,498.175,760.704,532.539,800.237,535.113" fill="rgba(244, 244, 244, 0.33)" class="triangle-float2"></path><path d="M119.52759221873838 677.8216041363293L203.97840940624587 584.0294696803312 110.18627495024775 499.57865249282366 25.735457762740268 593.3707869488218z" fill="rgba(244, 244, 244, 0.33)" class="triangle-float1"></path><path d="M351.44586202814503 423.9604999311264L509.54162452804803 393.2297967430318 478.8109213399535 235.13403424312875 320.71515884005044 265.8647374312234z" fill="rgba(244, 244, 244, 0.33)" class="triangle-float3"></path><path d="M1423.177,563.842C1505.096,570.316,1593.039,544.109,1634.576,473.206C1676.456,401.717,1654.824,313.048,1611.457,242.451C1570.357,175.545,1501.641,132.071,1423.177,129.072C1338.835,125.848,1246.539,151.844,1208.197,227.036C1171.92,298.178,1219.716,376.504,1262.682,443.817C1301.205,504.17,1351.8,558.201,1423.177,563.842" fill="rgba(244, 244, 244, 0.33)" class="triangle-float3"></path><path d="M1173.123049430815 438.78465918260156L1363.025053385462 527.3374179256343 1261.6758081738476 248.88265522795461z" fill="rgba(244, 244, 244, 0.33)" class="triangle-float2"></path><path d="M667.0860250457679 346.50984297458075L858.9841550538185 302.3992571984004 743.8108220516215 174.48631219157028z" fill="rgba(244, 244, 244, 0.33)" class="triangle-float2"></path><path d="M1118.4366965582308 478.8401207113837L1017.1972472941925 628.9337766639727 1167.2909032467815 730.1732259280109 1268.5303525108197 580.0795699754219z" fill="rgba(244, 244, 244, 0.33)" class="triangle-float3"></path><path d="M1350.489,348.31C1411.502,345.497,1453.296,291.95,1480.455,237.243C1504.254,189.303,1503.511,135.515,1479.999,87.434C1452.715,31.639,1412.598,-28.585,1350.489,-28.536C1288.426,-28.487,1251.119,33.19,1221.332,87.638C1193.16,139.134,1171.905,197.671,1197.965,250.267C1226.725,308.312,1285.779,351.293,1350.489,348.31" fill="rgba(244, 244, 244, 0.33)" class="triangle-float3"></path><path d="M383.613,211.037C414.034,212.556,443.305,196.029,457.973,169.334C472.165,143.504,466.393,112.64,451.724,87.078C436.976,61.378,413.227,40.764,383.613,39.753C352.332,38.685,321.145,54.244,306.94,82.134C293.709,108.111,306.19,137.442,321.093,162.498C335.549,186.802,355.37,209.627,383.613,211.037" fill="rgba(244, 244, 244, 0.33)" class="triangle-float1"></path><path d="M721.6468024343363 151.1767582022606L544.0191602988677 299.93580457947536 733.1014872106648 372.5177095417233z" fill="rgba(244, 244, 244, 0.33)" class="triangle-float2"></path><path d="M910.54,518.962C959.876,519.394,1009.831,499.582,1033.638,456.368C1056.784,414.353,1044.196,363.474,1018.522,322.954C994.82,285.546,954.815,261.143,910.54,262.085C867.788,262.994,832.801,291.064,810.23,327.384C786.037,366.313,769.861,413.639,791.122,454.244C813.632,497.235,862.015,518.537,910.54,518.962" fill="rgba(244, 244, 244, 0.33)" class="triangle-float3"></path></g><defs><mask id="SvgjsMask1052"><rect width="1366" height="768" fill="#ffffff"></rect></mask><style>
                @keyframes float1 {
                    0%{transform: translate(0, 0)}
                    50%{transform: translate(-10px, 0)}
                    100%{transform: translate(0, 0)}
                }

                .triangle-float1 {
                    animation: float1 5s infinite;
                }

                @keyframes float2 {
                    0%{transform: translate(0, 0)}
                    50%{transform: translate(-5px, -5px)}
                    100%{transform: translate(0, 0)}
                }

                .triangle-float2 {
                    animation: float2 4s infinite;
                }

                @keyframes float3 {
                    0%{transform: translate(0, 0)}
                    50%{transform: translate(0, -10px)}
                    100%{transform: translate(0, 0)}
                }

                .triangle-float3 {
                    animation: float3 6s infinite;
                }
            </style></defs></svg>