<svg xmlns="http://www.w3.org/2000/svg" version="1.1" xmlns:xlink="http://www.w3.org/1999/xlink" xmlns:svgjs="http://svgjs.dev/svgjs" width="1366" height="768" preserveAspectRatio="none" viewBox="0 0 1366 768"><g mask="url(&quot;#SvgjsMask1036&quot;)" fill="none"><rect width="1366" height="768" x="0" y="0" fill="rgba(244, 244, 244, 1)"></rect><path d="M1394.183157971867 277.20654601021096L1352.2113332733259 94.61285492789725 1230.5004194409385 204.20185397776476z" fill="rgba(0, 28, 49, 0.33)" class="triangle-float3"></path><path d="M1273.836,453.808C1304.364,453.941,1337.319,450.274,1354.23,424.858C1372.721,397.067,1372.076,360.267,1355.258,331.433C1338.564,302.811,1306.971,287.179,1273.836,287.024C1240.412,286.868,1207.797,301.721,1191.083,330.666C1174.367,359.614,1175.997,396.42,1194.642,424.165C1211.492,449.239,1243.626,453.677,1273.836,453.808" fill="rgba(0, 28, 49, 0.33)" class="triangle-float3"></path><path d="M661.364,965.598C724.006,965.902,785.139,939.509,817.543,885.898C851.035,830.486,854.37,758.954,819.072,704.675C786.28,654.249,721.421,642.393,661.364,645.733C607.84,648.71,560.381,675.597,531.373,720.677C499.396,770.372,480.088,832.195,507.792,884.393C536.888,939.214,599.301,965.296,661.364,965.598" fill="rgba(0, 28, 49, 0.33)" class="triangle-float2"></path><path d="M266.8951970115219 141.5764982679429L116.27384129334058 302.7898233016637 303.40818407682684 349.44765525124154z" fill="rgba(0, 28, 49, 0.33)" class="triangle-float1"></path><path d="M932.479,898.648C980.829,900.181,1033.253,889.199,1057.873,847.559C1082.815,805.375,1067.954,753.534,1043.332,711.162C1018.857,669.043,981.152,633.759,932.479,631.765C880.533,629.637,829.372,655.627,804.69,701.384C781.03,745.247,793.047,798.193,820.143,840.02C844.757,878.015,887.231,897.213,932.479,898.648" fill="rgba(0, 28, 49, 0.33)" class="triangle-float1"></path><path d="M341.063,512.264C398.959,516.024,451.093,477.776,479.33,427.093C506.82,377.752,504.128,318.333,476.582,269.023C448.291,218.38,399.018,177.06,341.063,179.585C286.166,181.977,248.212,230.404,224.564,280.004C204.408,322.28,209.756,369.088,230.754,410.952C254.745,458.781,287.666,508.797,341.063,512.264" fill="rgba(0, 28, 49, 0.33)" class="triangle-float2"></path><path d="M4.68,334.165C34.891,336.054,63.059,317.816,77.814,291.385C92.217,265.584,89.496,234.313,74.7,208.735C59.927,183.198,34.181,164.788,4.68,164.963C-24.549,165.137,-50.886,183.392,-63.915,209.558C-75.734,233.294,-66.948,259.904,-54.161,283.133C-40.742,307.51,-23.093,332.428,4.68,334.165" fill="rgba(0, 28, 49, 0.33)" class="triangle-float3"></path><path d="M1053.5797068380489 111.6098781215877L963.6869233644468 33.467273622599635 891.4194083527658 207.37775108249687z" fill="rgba(0, 28, 49, 0.33)" class="triangle-float1"></path><path d="M97.259,575.215C126.543,575.349,158.217,568.173,172.447,542.579C186.407,517.472,173.186,488.49,159.531,463.216C144.869,436.078,127.995,406.008,97.259,403.411C63.025,400.518,29.827,420.587,13.634,450.888C-1.777,479.724,5.002,514.768,23.25,541.898C39.434,565.959,68.262,575.083,97.259,575.215" fill="rgba(0, 28, 49, 0.33)" class="triangle-float1"></path><path d="M727.6812313526681 76.08186946654368L542.861159137452 174.35244502372967 641.131734694638 359.1725172389457 825.9518069098541 260.9019416817597z" fill="rgba(0, 28, 49, 0.33)" class="triangle-float3"></path><path d="M1242.636,130.958C1276.133,130.482,1313.991,127.877,1330.742,98.866C1347.493,69.854,1332.67,34.653,1314.488,6.515C1298.151,-18.767,1272.654,-35.252,1242.636,-37.484C1207.596,-40.089,1169.029,-34.989,1149.547,-5.747C1128.316,26.12,1128.534,69.781,1150.087,101.432C1169.622,130.119,1207.932,131.451,1242.636,130.958" fill="rgba(0, 28, 49, 0.33)" class="triangle-float2"></path><path d="M683.6227555357245 266.89753436376304L455.867278435967 209.88111227653442 508.9867716475102 408.1257598143235z" fill="rgba(0, 28, 49, 0.33)" class="triangle-float3"></path><path d="M27.523,356.945C50.418,357.586,70.989,342.965,81.751,322.747C91.907,303.668,89.507,280.584,77.865,262.374C67.095,245.528,47.503,238.679,27.523,237.927C5.787,237.109,-18.643,239.672,-29.843,258.318C-41.262,277.328,-32.837,300.681,-21.687,319.85C-10.617,338.882,5.515,356.329,27.523,356.945" fill="rgba(0, 28, 49, 0.33)" class="triangle-float2"></path><path d="M1152.8846640521713 158.3681950962565L1273.1334461268364 204.5273777915317 1282.2478291324167 1.074613331896444z" fill="rgba(0, 28, 49, 0.33)" class="triangle-float2"></path><path d="M691.2553478712186 613.9946568373139L869.0511567776506 671.7640170586756 749.0247080925803 436.1988479308819z" fill="rgba(0, 28, 49, 0.33)" class="triangle-float3"></path><path d="M496.213,1038.194C562.855,1035.518,617.123,990.231,649.821,932.1C681.798,875.251,687.22,808.282,658.464,749.738C625.681,682.995,570.491,622.863,496.213,619.371C416.871,615.641,343.026,663.288,305.195,733.13C268.999,799.955,279.305,880.947,319.638,945.36C357.462,1005.766,424.999,1041.054,496.213,1038.194" fill="rgba(0, 28, 49, 0.33)" class="triangle-float3"></path><path d="M1051.701,693.94C1111.198,693.883,1170.563,667.991,1198.619,615.524C1225.418,565.408,1208.323,505.847,1177.977,457.796C1149.968,413.447,1104.15,383.51,1051.701,382.894C998.16,382.266,948.82,409.525,920.185,454.77C889.269,503.62,876.443,565.147,904.299,615.804C933.018,668.032,992.098,693.997,1051.701,693.94" fill="rgba(0, 28, 49, 0.33)" class="triangle-float3"></path></g><defs><mask id="SvgjsMask1036"><rect width="1366" height="768" fill="#ffffff"></rect></mask><style>
                @keyframes float1 {
                    0%{transform: translate(0, 0)}
                    50%{transform: translate(-10px, 0)}
                    100%{transform: translate(0, 0)}
                }

                .triangle-float1 {
                    animation: float1 5s infinite;
                }

                @keyframes float2 {
                    0%{transform: translate(0, 0)}
                    50%{transform: translate(-5px, -5px)}
                    100%{transform: translate(0, 0)}
                }

                .triangle-float2 {
                    animation: float2 4s infinite;
                }

                @keyframes float3 {
                    0%{transform: translate(0, 0)}
                    50%{transform: translate(0, -10px)}
                    100%{transform: translate(0, 0)}
                }

                .triangle-float3 {
                    animation: float3 6s infinite;
                }
            </style></defs></svg>