<svg xmlns="http://www.w3.org/2000/svg" version="1.1" xmlns:xlink="http://www.w3.org/1999/xlink" xmlns:svgjs="http://svgjs.dev/svgjs" width="1366" height="768" preserveAspectRatio="none" viewBox="0 0 1366 768"><g mask="url(&quot;#SvgjsMask1019&quot;)" fill="none"><rect width="1366" height="768" x="0" y="0" fill="rgba(24, 25, 26, 1)"></rect><path d="M0,509.124C106.93,503.071,224.975,548.142,314.141,488.812C403.167,429.576,417.818,307.934,453.737,207.215C486.629,114.986,512.04,23.851,514.867,-74.027C518.181,-188.753,554.838,-329.636,471.525,-408.579C386.605,-489.044,243.352,-414.555,129.073,-439.581C26.388,-462.069,-55.894,-556.116,-160.618,-547.015C-272.112,-537.325,-366.191,-464.273,-449.295,-389.317C-540.957,-306.643,-640.757,-216.788,-661.63,-95.128C-682.645,27.362,-617.43,145.531,-559.963,255.727C-504.963,361.192,-446.226,476.683,-337.86,525.721C-233.009,573.169,-114.903,515.628,0,509.124" fill="#131415"></path><path d="M1366 1072.0430000000001C1426.349 1074.838 1486.004 1065.5520000000001 1540.598 1039.68 1600.642 1011.225 1654.723 971.716 1692.722 917.2090000000001 1735.818 855.39 1772.689 785.162 1770.5430000000001 709.835 1768.29 630.738 1733.839 553.942 1680.702 495.309 1628.165 437.338 1554.763 401.49 1477.896 386.919 1405.293 373.156 1331.3220000000001 388.744 1262.662 416.064 1198.475 441.604 1152.414 492.563 1099.8220000000001 537.356 1037.0059999999999 590.857 941.87 623.892 924.054 704.458 906.298 784.751 959.2719999999999 867.032 1013.187 929.124 1060.219 983.289 1135.009 997.0409999999999 1201.496 1023.9739999999999 1255.539 1045.866 1307.753 1069.345 1366 1072.0430000000001" fill="#1d1e1f"></path></g><defs><mask id="SvgjsMask1019"><rect width="1366" height="768" fill="#ffffff"></rect></mask></defs></svg>